<svg width="23" height="23" viewBox="0 0 23 23" fill="none" xmlns="http://www.w3.org/2000/svg">
<path d="M11.5 11.5C14.1464 11.5 16.2917 9.35466 16.2917 6.70829C16.2917 4.06193 14.1464 1.91663 11.5 1.91663C8.85368 1.91663 6.70837 4.06193 6.70837 6.70829C6.70837 9.35466 8.85368 11.5 11.5 11.5Z" stroke="black" stroke-width="2"/>
<path d="M16.2917 13.4166H16.629C17.3296 13.4168 18.0061 13.6729 18.5312 14.1366C19.0564 14.6004 19.3941 15.2399 19.481 15.9351L19.8557 18.929C19.8894 19.1987 19.8654 19.4724 19.7852 19.7321C19.705 19.9918 19.5705 20.2315 19.3906 20.4353C19.2107 20.639 18.9895 20.8022 18.7417 20.9139C18.4939 21.0256 18.2252 21.0834 17.9534 21.0833H5.0466C4.7748 21.0834 4.5061 21.0256 4.25832 20.9139C4.01054 20.8022 3.78936 20.639 3.60946 20.4353C3.42956 20.2315 3.29504 19.9918 3.21485 19.7321C3.13465 19.4724 3.11061 19.1987 3.14431 18.929L3.51806 15.9351C3.60498 15.2396 3.943 14.5998 4.46856 14.136C4.99413 13.6722 5.67103 13.4164 6.37198 13.4166H6.70835" stroke="black" stroke-width="2" stroke-linecap="round" stroke-linejoin="round"/>
</svg>
