<svg width="23" height="23" viewBox="0 0 23 23" fill="none" xmlns="http://www.w3.org/2000/svg">
<path d="M4.79169 6.70837H18.0071C18.2749 6.70838 18.5397 6.7645 18.7844 6.87312C19.0292 6.98173 19.2485 7.14042 19.4282 7.33897C19.6078 7.53752 19.7439 7.77151 19.8276 8.02587C19.9113 8.28023 19.9408 8.5493 19.9142 8.81575L19.3392 14.5657C19.2919 15.0387 19.0706 15.4772 18.7182 15.7961C18.3657 16.1151 17.9074 16.2917 17.4321 16.2917H8.28002C7.83676 16.2919 7.40715 16.1384 7.06432 15.8574C6.72149 15.5765 6.48665 15.1854 6.39977 14.7507L4.79169 6.70837Z" stroke="black" stroke-width="2" stroke-linejoin="round"/>
<path d="M4.79169 6.70833L4.01544 3.60046C3.96352 3.39322 3.84385 3.20927 3.67543 3.07784C3.50701 2.9464 3.29949 2.87501 3.08585 2.875H1.91669M7.66669 20.125H9.58335M15.3334 20.125H17.25" stroke="black" stroke-width="2" stroke-linecap="round" stroke-linejoin="round"/>
</svg>
